<?xml version="1.0" encoding="UTF-8"?>
<svg xmlns="http://www.w3.org/2000/svg" version="1.1" viewBox="0 0 120 120">
  <g>
    <g id="Graphic_Element">
      <path d="M83.7,100.7h-14c-1.2,0-2.2-1-2.2-2.2v-24.6h-15v24.6c0,1.2-1,2.2-2.2,2.2h-14c-5.5,0-10-5-10-11.1v-26.8h-5.6c-2.2,0-4.2-1.4-5-3.7-.9-2.4-.2-5.1,1.8-6.7L56.8,20.4c1.9-1.5,4.5-1.5,6.4,0l39.3,32.1h0c1.9,1.6,2.6,4.3,1.8,6.7-.8,2.2-2.7,3.7-5,3.7h-5.6v26.8c0,6.1-4.5,11.1-10,11.1ZM71.9,96.3h11.8c3.1,0,5.6-3,5.6-6.7v-29c0-1.2,1-2.2,2.2-2.2h7.8c.5,0,.7-.5.8-.8.2-.6.2-1.4-.4-1.8L60.4,23.8c-.3-.2-.6-.2-.9,0L20.2,55.9c-.6.5-.6,1.2-.4,1.8.1.3.3.8.8.8h7.8c1.2,0,2.2,1,2.2,2.2v29c0,3.7,2.5,6.7,5.6,6.7h11.8v-24.6c0-1.2,1-2.2,2.2-2.2h19.4c1.2,0,2.2,1,2.2,2.2v24.6Z"/>
    </g>
  </g>
</svg>